<svg width="14" height="14" viewBox="0 0 14 14" fill="none" xmlns="http://www.w3.org/2000/svg">
<path d="M7 7.8106L0.993785 13.8168C0.886926 13.9237 0.755642 13.9809 0.599934 13.9886C0.444226 13.9962 0.30531 13.9389 0.183186 13.8168C0.0610619 13.6947 0 13.5596 0 13.4115C0 13.2634 0.0610619 13.1283 0.183186 13.0062L6.1894 7L0.183186 0.993785C0.0763274 0.886926 0.0190816 0.755642 0.0114488 0.599934C0.00381609 0.444226 0.0610619 0.30531 0.183186 0.183186C0.30531 0.0610619 0.44041 0 0.588485 0C0.736561 0 0.871661 0.0610619 0.993785 0.183186L7 6.1894L13.0062 0.183186C13.1131 0.0763274 13.2447 0.0190816 13.4012 0.0114488C13.5562 0.00381609 13.6947 0.0610619 13.8168 0.183186C13.9389 0.30531 14 0.44041 14 0.588485C14 0.736561 13.9389 0.871661 13.8168 0.993785L7.8106 7L13.8168 13.0062C13.9237 13.1131 13.9809 13.2447 13.9886 13.4012C13.9962 13.5562 13.9389 13.6947 13.8168 13.8168C13.6947 13.9389 13.5596 14 13.4115 14C13.2634 14 13.1283 13.9389 13.0062 13.8168L7 7.8106Z" fill="#FF6F61"/>
</svg>
