<svg width="20" height="17" viewBox="0 0 20 17" fill="none" xmlns="http://www.w3.org/2000/svg">
<path fill-rule="evenodd" clip-rule="evenodd" d="M0.733398 3.5V13.5C0.733398 14.163 1.00695 14.7989 1.49388 15.2678C1.9808 15.7366 2.64121 16 3.32983 16H16.312C17.0006 16 17.661 15.7366 18.1479 15.2678C18.6349 14.7989 18.9084 14.163 18.9084 13.5V3.5C18.9084 2.83696 18.6349 2.20107 18.1479 1.73223C17.661 1.26339 17.0006 1 16.312 1H3.32983C2.64121 1 1.9808 1.26339 1.49388 1.73223C1.00695 2.20107 0.733398 2.83696 0.733398 3.5Z" stroke="#FBF3E9" stroke-linecap="round" stroke-linejoin="round"/>
<path d="M3.33008 4.75024L9.82116 8.50024L16.3122 4.75024" stroke="#FBF3E9" stroke-linecap="round" stroke-linejoin="round"/>
</svg>
