<svg width="19" height="19" viewBox="0 0 19 19" fill="none" xmlns="http://www.w3.org/2000/svg">
<path d="M9.5 0C9.69381 0 9.87969 0.0769917 10.0167 0.214037C10.1538 0.351083 10.2308 0.536957 10.2308 0.730769V8.76923H18.2692C18.463 8.76923 18.6489 8.84622 18.786 8.98327C18.923 9.12031 19 9.30619 19 9.5C19 9.69381 18.923 9.87969 18.786 10.0167C18.6489 10.1538 18.463 10.2308 18.2692 10.2308H10.2308V18.2692C10.2308 18.463 10.1538 18.6489 10.0167 18.786C9.87969 18.923 9.69381 19 9.5 19C9.30619 19 9.12031 18.923 8.98327 18.786C8.84622 18.6489 8.76923 18.463 8.76923 18.2692V10.2308H0.730769C0.536957 10.2308 0.351083 10.1538 0.214037 10.0167C0.0769917 9.87969 0 9.69381 0 9.5C0 9.30619 0.0769917 9.12031 0.214037 8.98327C0.351083 8.84622 0.536957 8.76923 0.730769 8.76923H8.76923V0.730769C8.76923 0.536957 8.84622 0.351083 8.98327 0.214037C9.12031 0.0769917 9.30619 0 9.5 0Z" fill="#FBF3E9" fill-opacity="0.9"/>
</svg>
