<svg width="18" height="18" viewBox="0 0 18 18" fill="none" xmlns="http://www.w3.org/2000/svg">
<path d="M17.1303 17.8499C17.596 18.313 18.3149 17.5982 17.8491 17.1451L14.0525 13.3597C15.3846 11.8946 16.1209 9.98898 16.1179 8.01381C16.1179 3.59414 12.5035 0 8.05894 0C3.61438 0 0 3.59414 0 8.01381C0 12.4335 3.61438 16.0276 8.05894 16.0276C10.0636 16.0276 11.9163 15.2927 13.3337 14.0745L17.1303 17.8499ZM1.01142 8.01381C1.01142 4.14785 4.18032 1.00676 8.05793 1.00676C11.9457 1.00676 15.1044 4.14785 15.1044 8.01381C15.1044 11.8798 11.9457 15.0209 8.05793 15.0209C4.18032 15.0209 1.01142 11.8798 1.01142 8.01381Z" fill="#272624"/>
</svg>
