<svg width="26" height="22" viewBox="0 0 26 22" fill="none" xmlns="http://www.w3.org/2000/svg">
<path d="M23.9189 1C24.6585 1 25.2164 1.63251 24.918 2.80898L21.298 19.444C21.045 20.6268 20.3119 20.9114 19.2998 20.3611L10.6649 14.1435C10.6314 14.1201 10.6041 14.0893 10.5853 14.0535C10.5665 14.0178 10.5567 13.9782 10.5567 13.938C10.5567 13.8978 10.5665 13.8582 10.5853 13.8225C10.6041 13.7867 10.6314 13.7558 10.6649 13.7324L20.6362 4.95318C21.0904 4.56103 20.5389 4.37128 19.9421 4.72548L7.42762 12.4231C7.38967 12.4473 7.34657 12.4626 7.30161 12.4681C7.25665 12.4736 7.211 12.469 7.16812 12.4547L1.85483 10.8165C0.674097 10.4813 0.674097 9.69068 2.12082 9.12775L23.3805 1.13283C23.5493 1.0546 23.7322 1.00947 23.9189 1Z" stroke="#FBF3E9" stroke-linecap="round" stroke-linejoin="round"/>
</svg>
