<svg width="24" height="24" viewBox="0 0 24 24" fill="none" xmlns="http://www.w3.org/2000/svg">
<path d="M18.9384 14.1837L15.0982 12.2992C15.0226 12.2622 14.9384 12.2454 14.8541 12.2506C14.7698 12.2558 14.6884 12.2827 14.6181 12.3286L12.6212 13.636C11.5235 13.1193 10.6382 12.2505 10.1118 11.1731L11.4439 9.21318C11.4907 9.14418 11.5181 9.06428 11.5233 8.98156C11.5286 8.89884 11.5116 8.81622 11.4739 8.74204L9.55374 4.9729C9.51391 4.89423 9.45246 4.82805 9.37633 4.78184C9.3002 4.73564 9.21242 4.71125 9.12291 4.71142C7.97709 4.71142 6.8782 5.15816 6.06798 5.95337C5.25777 6.74857 4.80259 7.8271 4.80259 8.95169C4.80545 11.5749 5.86844 14.0898 7.75833 15.9447C9.64822 17.7996 12.2106 18.8429 14.8833 18.8457C16.0292 18.8457 17.1281 18.3989 17.9383 17.6037C18.7485 16.8085 19.2037 15.73 19.2037 14.6054C19.2037 14.5179 19.1789 14.4321 19.1321 14.3576C19.0853 14.2831 19.0182 14.2229 18.9384 14.1837ZM14.8833 17.9034C12.4652 17.9009 10.1468 16.957 8.43685 15.2787C6.72694 13.6005 5.7652 11.3251 5.76266 8.95169C5.76252 8.12626 6.07775 7.33078 6.64611 6.72236C7.21447 6.11394 7.99462 5.73682 8.83249 5.66548L10.4886 8.91754L9.16852 10.8657C9.12452 10.93 9.09734 11.0039 9.08938 11.081C9.08143 11.158 9.09295 11.2358 9.12291 11.3074C9.7607 12.7956 10.9669 13.9794 12.4832 14.6054C12.5562 14.6352 12.6356 14.6468 12.7144 14.6392C12.7931 14.6316 12.8687 14.605 12.9344 14.5618L14.9193 13.2662L18.2328 14.8916C18.1598 15.714 17.7753 16.4795 17.1551 17.0371C16.535 17.5948 15.7244 17.9039 14.8833 17.9034ZM12.0031 2.03493e-07C9.91387 -0.000380908 7.86071 0.534567 6.04674 1.55193C4.23276 2.56929 2.72083 4.03382 1.66048 5.80064C0.60013 7.56747 0.0281136 9.57537 0.00101012 11.6257C-0.0260933 13.6761 0.492655 15.6979 1.50594 17.4911L0.0778362 21.6949C-0.006784 21.9439 -0.0190642 22.2112 0.0423717 22.4667C0.103808 22.7222 0.236532 22.9559 0.425669 23.1415C0.614805 23.3271 0.852879 23.4574 1.11321 23.5177C1.37354 23.578 1.64583 23.5659 1.89957 23.4829L6.18269 22.0812C7.78487 22.9525 9.56901 23.4523 11.3984 23.5423C13.2278 23.6323 15.0539 23.3101 16.7368 22.6004C18.4197 21.8907 19.9148 20.8123 21.1075 19.4478C22.3001 18.0834 23.1587 16.4691 23.6175 14.7286C24.0763 12.9882 24.123 11.1677 23.7542 9.40681C23.3854 7.64587 22.6107 5.99117 21.4896 4.56947C20.3685 3.14777 18.9307 1.99681 17.2864 1.20476C15.6421 0.412716 13.8348 0.000603102 12.0031 2.03493e-07ZM12.0031 22.6148C10.0619 22.6154 8.15492 22.1136 6.47431 21.1602C6.40128 21.1189 6.31857 21.097 6.2343 21.0966C6.18247 21.0967 6.131 21.105 6.08189 21.1213L1.59595 22.5889C1.51137 22.6166 1.4206 22.6206 1.33383 22.6005C1.24705 22.5804 1.16769 22.537 1.10465 22.4751C1.0416 22.4132 0.997361 22.3353 0.976883 22.2502C0.956404 22.165 0.960498 22.0759 0.988705 21.9929L2.48402 17.5901C2.50559 17.5268 2.51321 17.4597 2.50638 17.3933C2.49955 17.3269 2.47843 17.2627 2.44441 17.2049C1.22717 15.1398 0.738311 12.7382 1.05369 10.3726C1.36906 8.00703 2.47104 5.80971 4.18867 4.12154C5.90629 2.43337 8.14354 1.34872 10.5533 1.03586C12.9632 0.723003 15.4108 1.19942 17.5166 2.39121C19.6223 3.583 21.2685 5.42354 22.1997 7.62729C23.1309 9.83105 23.2951 12.2748 22.6668 14.5795C22.0385 16.8842 20.6528 18.9209 18.7247 20.3738C16.7966 21.8267 14.4339 22.6144 12.0031 22.6148Z" fill="#FBF3E9" fill-opacity="0.8"/>
</svg>
