<svg width="199" height="67" viewBox="0 0 199 67" fill="none" xmlns="http://www.w3.org/2000/svg">
<mask id="path-1-inside-1_637_745" fill="white">
<path d="M36.7513 0.839998V11.8H13.8712V23.64H30.9912V34.28H13.8712V57H0.191247V0.839998H36.7513ZM48.7412 57.64C46.3412 57.64 44.3679 56.9467 42.8212 55.56C41.3279 54.12 40.5812 52.36 40.5812 50.28C40.5812 48.1467 41.3279 46.36 42.8212 44.92C44.3679 43.48 46.3412 42.76 48.7412 42.76C51.0879 42.76 53.0079 43.48 54.5012 44.92C56.0479 46.36 56.8212 48.1467 56.8212 50.28C56.8212 52.36 56.0479 54.12 54.5012 55.56C53.0079 56.9467 51.0879 57.64 48.7412 57.64ZM98.2794 47.08H77.3194L73.9594 57H59.6394L79.9594 0.839998H95.7994L116.119 57H101.639L98.2794 47.08ZM94.7594 36.52L87.7994 15.96L80.9194 36.52H94.7594ZM127.104 57.64C124.704 57.64 122.73 56.9467 121.184 55.56C119.69 54.12 118.944 52.36 118.944 50.28C118.944 48.1467 119.69 46.36 121.184 44.92C122.73 43.48 124.704 42.76 127.104 42.76C129.45 42.76 131.37 43.48 132.864 44.92C134.41 46.36 135.184 48.1467 135.184 50.28C135.184 52.36 134.41 54.12 132.864 55.56C131.37 56.9467 129.45 57.64 127.104 57.64ZM181.682 66.6L174.482 56.92C172.349 57.3467 170.269 57.56 168.242 57.56C162.962 57.56 158.109 56.3333 153.682 53.88C149.309 51.4267 145.815 48.0133 143.202 43.64C140.642 39.2133 139.362 34.2533 139.362 28.76C139.362 23.2667 140.642 18.3333 143.202 13.96C145.815 9.58667 149.309 6.17333 153.682 3.72C158.109 1.26667 162.962 0.039999 168.242 0.039999C173.522 0.039999 178.349 1.26667 182.722 3.72C187.149 6.17333 190.615 9.58667 193.122 13.96C195.682 18.3333 196.962 23.2667 196.962 28.76C196.962 33.56 195.975 37.96 194.002 41.96C192.082 45.9067 189.389 49.1867 185.922 51.8L198.242 66.6H181.682ZM153.362 28.76C153.362 33.72 154.695 37.6933 157.362 40.68C160.082 43.6133 163.709 45.08 168.242 45.08C172.722 45.08 176.295 43.5867 178.962 40.6C181.682 37.6133 183.042 33.6667 183.042 28.76C183.042 23.8 181.682 19.8533 178.962 16.92C176.295 13.9333 172.722 12.44 168.242 12.44C163.709 12.44 160.082 13.9067 157.362 16.84C154.695 19.7733 153.362 23.7467 153.362 28.76Z"/>
</mask>
<path d="M36.7513 0.839998H37.7513V-0.160002H36.7513V0.839998ZM36.7513 11.8V12.8H37.7513V11.8H36.7513ZM13.8712 11.8V10.8H12.8712V11.8H13.8712ZM13.8712 23.64H12.8712V24.64H13.8712V23.64ZM30.9912 23.64H31.9912V22.64H30.9912V23.64ZM30.9912 34.28V35.28H31.9912V34.28H30.9912ZM13.8712 34.28V33.28H12.8712V34.28H13.8712ZM13.8712 57V58H14.8712V57H13.8712ZM0.191247 57H-0.808753V58H0.191247V57ZM0.191247 0.839998V-0.160002H-0.808753V0.839998H0.191247ZM35.7513 0.839998V11.8H37.7513V0.839998H35.7513ZM36.7513 10.8H13.8712V12.8H36.7513V10.8ZM12.8712 11.8V23.64H14.8712V11.8H12.8712ZM13.8712 24.64H30.9912V22.64H13.8712V24.64ZM29.9912 23.64V34.28H31.9912V23.64H29.9912ZM30.9912 33.28H13.8712V35.28H30.9912V33.28ZM12.8712 34.28V57H14.8712V34.28H12.8712ZM13.8712 56H0.191247V58H13.8712V56ZM1.19125 57V0.839998H-0.808753V57H1.19125ZM0.191247 1.84H36.7513V-0.160002H0.191247V1.84ZM42.8212 55.56L42.1271 56.2798L42.1402 56.2924L42.1537 56.3046L42.8212 55.56ZM42.8212 44.92L42.1398 44.1881L42.1334 44.1941L42.1271 44.2002L42.8212 44.92ZM54.5013 44.92L53.8071 45.6398L53.8134 45.6459L53.8198 45.6519L54.5013 44.92ZM54.5013 55.56L55.1817 56.2928L55.1827 56.2919L54.5013 55.56ZM48.7412 56.64C46.5469 56.64 44.8238 56.0123 43.4888 54.8154L42.1537 56.3046C43.9121 57.881 46.1356 58.64 48.7412 58.64V56.64ZM43.5154 54.8402C42.2181 53.5892 41.5812 52.0893 41.5812 50.28H39.5812C39.5812 52.6307 40.4377 54.6508 42.1271 56.2798L43.5154 54.8402ZM41.5812 50.28C41.5812 48.4095 42.2237 46.8854 43.5154 45.6398L42.1271 44.2002C40.4322 45.8346 39.5812 47.8838 39.5812 50.28H41.5812ZM43.5027 45.6519C44.8389 44.4078 46.5572 43.76 48.7412 43.76V41.76C46.1253 41.76 43.8969 42.5522 42.1398 44.1881L43.5027 45.6519ZM48.7412 43.76C50.8658 43.76 52.5251 44.4036 53.8071 45.6398L55.1954 44.2002C53.4908 42.5564 51.31 41.76 48.7412 41.76V43.76ZM53.8198 45.6519C55.1611 46.9007 55.8213 48.4213 55.8213 50.28H57.8213C57.8213 47.8721 56.9347 45.8193 55.1827 44.1881L53.8198 45.6519ZM55.8213 50.28C55.8213 52.0774 55.167 53.5738 53.8198 54.8281L55.1827 56.2919C56.9288 54.6662 57.8213 52.6426 57.8213 50.28H55.8213ZM53.8208 54.8272C52.5404 56.0161 50.8765 56.64 48.7412 56.64V58.64C51.2993 58.64 53.4754 57.8772 55.1817 56.2928L53.8208 54.8272ZM98.2794 47.08L99.2265 46.7592L98.9965 46.08H98.2794V47.08ZM77.3194 47.08V46.08H76.6023L76.3722 46.7592L77.3194 47.08ZM73.9594 57V58H74.6765L74.9065 57.3208L73.9594 57ZM59.6394 57L58.699 56.6598L58.2141 58H59.6394V57ZM79.9594 0.839998V-0.160002H79.2578L79.019 0.499762L79.9594 0.839998ZM95.7994 0.839998L96.7397 0.499762L96.501 -0.160002H95.7994V0.839998ZM116.119 57V58H117.545L117.06 56.6598L116.119 57ZM101.639 57L100.692 57.3208L100.922 58H101.639V57ZM94.7594 36.52V37.52H96.1536L95.7066 36.1993L94.7594 36.52ZM87.7994 15.96L88.7466 15.6394L87.7939 12.8251L86.8511 15.6427L87.7994 15.96ZM80.9194 36.52L79.9711 36.2027L79.5302 37.52H80.9194V36.52ZM98.2794 46.08H77.3194V48.08H98.2794V46.08ZM76.3722 46.7592L73.0122 56.6792L74.9065 57.3208L78.2665 47.4008L76.3722 46.7592ZM73.9594 56H59.6394V58H73.9594V56ZM60.5797 57.3402L80.8997 1.18024L79.019 0.499762L58.699 56.6598L60.5797 57.3402ZM79.9594 1.84H95.7994V-0.160002H79.9594V1.84ZM94.859 1.18024L115.179 57.3402L117.06 56.6598L96.7397 0.499762L94.859 1.18024ZM116.119 56H101.639V58H116.119V56ZM102.587 56.6792L99.2265 46.7592L97.3322 47.4008L100.692 57.3208L102.587 56.6792ZM95.7066 36.1993L88.7466 15.6394L86.8522 16.2806L93.8122 36.8406L95.7066 36.1993ZM86.8511 15.6427L79.9711 36.2027L81.8677 36.8373L88.7477 16.2773L86.8511 15.6427ZM80.9194 37.52H94.7594V35.52H80.9194V37.52ZM121.184 55.56L120.49 56.2798L120.503 56.2924L120.516 56.3046L121.184 55.56ZM121.184 44.92L120.502 44.1881L120.496 44.1941L120.49 44.2002L121.184 44.92ZM132.864 44.92L132.17 45.6398L132.176 45.6459L132.182 45.6519L132.864 44.92ZM132.864 55.56L133.544 56.2928L133.545 56.2919L132.864 55.56ZM127.104 56.64C124.909 56.64 123.186 56.0123 121.851 54.8154L120.516 56.3046C122.275 57.881 124.498 58.64 127.104 58.64V56.64ZM121.878 54.8402C120.581 53.5892 119.944 52.0893 119.944 50.28H117.944C117.944 52.6307 118.8 54.6508 120.49 56.2798L121.878 54.8402ZM119.944 50.28C119.944 48.4095 120.586 46.8854 121.878 45.6398L120.49 44.2002C118.795 45.8346 117.944 47.8838 117.944 50.28H119.944ZM121.865 45.6519C123.201 44.4078 124.92 43.76 127.104 43.76V41.76C124.488 41.76 122.259 42.5522 120.502 44.1881L121.865 45.6519ZM127.104 43.76C129.228 43.76 130.888 44.4036 132.17 45.6398L133.558 44.2002C131.853 42.5564 129.673 41.76 127.104 41.76V43.76ZM132.182 45.6519C133.524 46.9007 134.184 48.4213 134.184 50.28H136.184C136.184 47.8721 135.297 45.8193 133.545 44.1881L132.182 45.6519ZM134.184 50.28C134.184 52.0774 133.529 53.5738 132.182 54.8281L133.545 56.2919C135.291 54.6662 136.184 52.6426 136.184 50.28H134.184ZM132.183 54.8272C130.903 56.0161 129.239 56.64 127.104 56.64V58.64C129.662 58.64 131.838 57.8772 133.544 56.2928L132.183 54.8272ZM181.682 66.6L180.88 67.1968L181.179 67.6H181.682V66.6ZM174.482 56.92L175.284 56.3232L174.906 55.8153L174.286 55.9394L174.482 56.92ZM153.682 53.88L153.193 54.7522L153.197 54.7547L153.682 53.88ZM143.202 43.64L142.336 44.1406L142.34 44.1468L142.343 44.153L143.202 43.64ZM143.202 13.96L142.343 13.447L142.339 13.4548L143.202 13.96ZM153.682 3.72L153.197 2.84533L153.193 2.84785L153.682 3.72ZM182.722 3.72L182.233 4.59216L182.237 4.59465L182.722 3.72ZM193.122 13.96L192.254 14.4573L192.259 14.4652L193.122 13.96ZM194.002 41.96L193.105 41.5176L193.103 41.5225L194.002 41.96ZM185.922 51.8L185.32 51.0015L184.482 51.6332L185.153 52.4398L185.922 51.8ZM198.242 66.6V67.6H200.375L199.01 65.9602L198.242 66.6ZM157.362 40.68L156.616 41.346L156.622 41.353L156.629 41.3599L157.362 40.68ZM178.962 40.6L178.223 39.9266L178.216 39.934L178.962 40.6ZM178.962 16.92L178.216 17.586L178.222 17.593L178.229 17.5999L178.962 16.92ZM157.362 16.84L156.629 16.16L156.622 16.1673L157.362 16.84ZM182.484 66.0032L175.284 56.3232L173.68 57.5168L180.88 67.1968L182.484 66.0032ZM174.286 55.9394C172.212 56.3541 170.198 56.56 168.242 56.56V58.56C170.339 58.56 172.485 58.3392 174.678 57.9006L174.286 55.9394ZM168.242 56.56C163.124 56.56 158.438 55.3728 154.167 53.0053L153.197 54.7547C157.779 57.2938 162.8 58.56 168.242 58.56V56.56ZM154.171 53.0079C149.953 50.6414 146.586 47.353 144.06 43.127L142.343 44.153C145.045 48.6737 148.664 52.2119 153.193 54.7521L154.171 53.0079ZM144.068 43.1394C141.602 38.8762 140.362 34.091 140.362 28.76H138.362C138.362 34.4156 139.682 39.5505 142.336 44.1406L144.068 43.1394ZM140.362 28.76C140.362 23.4288 141.602 18.6725 144.065 14.4652L142.339 13.4548C139.682 17.9942 138.362 23.1045 138.362 28.76H140.362ZM144.06 14.473C146.586 10.247 149.953 6.95861 154.171 4.59214L153.193 2.84785C148.664 5.38805 145.045 8.92632 142.343 13.447L144.06 14.473ZM154.167 4.59465C158.438 2.22715 163.124 1.04 168.242 1.04V-0.960001C162.8 -0.960001 157.779 0.306183 153.197 2.84534L154.167 4.59465ZM168.242 1.04C173.36 1.04 178.017 2.22713 182.233 4.59214L183.211 2.84785C178.68 0.306206 173.684 -0.960001 168.242 -0.960001V1.04ZM182.237 4.59465C186.505 6.95987 189.839 10.243 192.254 14.4573L193.989 13.4627C191.392 8.93034 187.792 5.38679 183.207 2.84534L182.237 4.59465ZM192.259 14.4652C194.722 18.6725 195.962 23.4288 195.962 28.76H197.962C197.962 23.1045 196.642 17.9942 193.985 13.4548L192.259 14.4652ZM195.962 28.76C195.962 33.4185 195.005 37.6655 193.105 41.5176L194.899 42.4024C196.945 38.2545 197.962 33.7015 197.962 28.76H195.962ZM193.103 41.5225C191.251 45.3287 188.659 48.4844 185.32 51.0015L186.524 52.5985C190.118 49.8889 192.913 46.4847 194.901 42.3975L193.103 41.5225ZM185.153 52.4398L197.473 67.2398L199.01 65.9602L186.69 51.1602L185.153 52.4398ZM198.242 65.6H181.682V67.6H198.242V65.6ZM152.362 28.76C152.362 33.9046 153.749 38.1351 156.616 41.346L158.108 40.014C155.641 37.2515 154.362 33.5354 154.362 28.76H152.362ZM156.629 41.3599C159.564 44.5255 163.471 46.08 168.242 46.08V44.08C163.946 44.08 160.6 42.7012 158.095 40.0001L156.629 41.3599ZM168.242 46.08C172.969 46.08 176.828 44.4918 179.708 41.266L178.216 39.934C175.763 42.6816 172.475 44.08 168.242 44.08V46.08ZM179.701 41.2733C182.623 38.0648 184.042 33.8595 184.042 28.76H182.042C182.042 33.4738 180.74 37.1619 178.223 39.9267L179.701 41.2733ZM184.042 28.76C184.042 23.6112 182.625 19.4 179.695 16.2401L178.229 17.5999C180.738 20.3066 182.042 23.9888 182.042 28.76H184.042ZM179.708 16.254C176.828 13.0282 172.969 11.44 168.242 11.44V13.44C172.475 13.44 175.763 14.8384 178.216 17.586L179.708 16.254ZM168.242 11.44C163.471 11.44 159.564 12.9945 156.629 16.1601L158.095 17.5199C160.6 14.8188 163.946 13.44 168.242 13.44V11.44ZM156.622 16.1673C153.747 19.3297 152.362 23.5662 152.362 28.76H154.362C154.362 23.9272 155.643 20.217 158.102 17.5127L156.622 16.1673Z" fill="#FF6F61" mask="url(#path-1-inside-1_637_745)"/>
</svg>
