<svg width="283" height="112" viewBox="0 0 283 112" fill="none" xmlns="http://www.w3.org/2000/svg">
<mask id="path-1-inside-1_631_33" fill="white">
<path d="M0.35 92.5V71.8L47.75 4H76.4V70.3H88.7V92.5H76.4V112H50.75V92.5H0.35ZM52.55 32.2L27.35 70.3H52.55V32.2ZM98.2637 55.75C98.2637 38.55 101.564 25 108.164 15.1C114.864 5.19999 125.614 0.24999 140.414 0.24999C155.214 0.24999 165.914 5.19999 172.514 15.1C179.214 25 182.564 38.55 182.564 55.75C182.564 73.15 179.214 86.8 172.514 96.7C165.914 106.6 155.214 111.55 140.414 111.55C125.614 111.55 114.864 106.6 108.164 96.7C101.564 86.8 98.2637 73.15 98.2637 55.75ZM157.364 55.75C157.364 45.65 156.264 37.9 154.064 32.5C151.864 27 147.314 24.25 140.414 24.25C133.514 24.25 128.964 27 126.764 32.5C124.564 37.9 123.464 45.65 123.464 55.75C123.464 62.55 123.864 68.2 124.664 72.7C125.464 77.1 127.064 80.7 129.464 83.5C131.964 86.2 135.614 87.55 140.414 87.55C145.214 87.55 148.814 86.2 151.214 83.5C153.714 80.7 155.364 77.1 156.164 72.7C156.964 68.2 157.364 62.55 157.364 55.75ZM193.715 92.5V71.8L241.115 4H269.765V70.3H282.065V92.5H269.765V112H244.115V92.5H193.715ZM245.915 32.2L220.715 70.3H245.915V32.2Z"/>
</mask>
<path d="M0.35 92.5H-0.65V93.5H0.35V92.5ZM0.35 71.8L-0.469572 71.227L-0.65 71.4851V71.8H0.35ZM47.75 4V3H47.229L46.9304 3.42702L47.75 4ZM76.4 4H77.4V3H76.4V4ZM76.4 70.3H75.4V71.3H76.4V70.3ZM88.7 70.3H89.7V69.3H88.7V70.3ZM88.7 92.5V93.5H89.7V92.5H88.7ZM76.4 92.5V91.5H75.4V92.5H76.4ZM76.4 112V113H77.4V112H76.4ZM50.75 112H49.75V113H50.75V112ZM50.75 92.5H51.75V91.5H50.75V92.5ZM52.55 32.2H53.55V28.8754L51.7159 31.6483L52.55 32.2ZM27.35 70.3L26.5159 69.7483L25.4896 71.3H27.35V70.3ZM52.55 70.3V71.3H53.55V70.3H52.55ZM1.35 92.5V71.8H-0.65V92.5H1.35ZM1.16957 72.373L48.5696 4.57297L46.9304 3.42702L-0.469572 71.227L1.16957 72.373ZM47.75 5H76.4V3H47.75V5ZM75.4 4V70.3H77.4V4H75.4ZM76.4 71.3H88.7V69.3H76.4V71.3ZM87.7 70.3V92.5H89.7V70.3H87.7ZM88.7 91.5H76.4V93.5H88.7V91.5ZM75.4 92.5V112H77.4V92.5H75.4ZM76.4 111H50.75V113H76.4V111ZM51.75 112V92.5H49.75V112H51.75ZM50.75 91.5H0.35V93.5H50.75V91.5ZM51.7159 31.6483L26.5159 69.7483L28.1841 70.8517L53.3841 32.7517L51.7159 31.6483ZM27.35 71.3H52.55V69.3H27.35V71.3ZM53.55 70.3V32.2H51.55V70.3H53.55ZM108.164 15.1L107.335 14.5395L107.332 14.5453L108.164 15.1ZM172.514 15.1L171.682 15.6547L171.686 15.6605L172.514 15.1ZM172.514 96.7L171.685 96.1395L171.682 96.1453L172.514 96.7ZM108.164 96.7L107.332 97.2547L107.336 97.2605L108.164 96.7ZM154.064 32.5L153.135 32.8714L153.138 32.8773L154.064 32.5ZM126.764 32.5L127.69 32.8773L127.692 32.8714L126.764 32.5ZM124.664 72.7L123.679 72.875L123.68 72.8789L124.664 72.7ZM129.464 83.5L128.704 84.1508L128.717 84.1653L128.73 84.1794L129.464 83.5ZM151.214 83.5L150.468 82.834L150.466 82.8356L151.214 83.5ZM156.164 72.7L157.148 72.8789L157.148 72.875L156.164 72.7ZM99.2637 55.75C99.2637 38.6637 102.544 25.3324 108.996 15.6547L107.332 14.5453C100.583 24.6676 97.2637 38.4363 97.2637 55.75H99.2637ZM108.992 15.6605C115.461 6.10205 125.856 1.24999 140.414 1.24999V-0.75001C125.371 -0.75001 114.267 4.29794 107.336 14.5395L108.992 15.6605ZM140.414 1.24999C154.972 1.24999 165.313 6.10199 171.682 15.6547L173.346 14.5453C166.514 4.29799 155.455 -0.75001 140.414 -0.75001V1.24999ZM171.686 15.6605C178.234 25.3371 181.564 38.6661 181.564 55.75H183.564C183.564 38.4339 180.193 24.6629 173.342 14.5395L171.686 15.6605ZM181.564 55.75C181.564 73.0367 178.233 86.4645 171.686 96.1395L173.342 97.2605C180.194 87.1355 183.564 73.2633 183.564 55.75H181.564ZM171.682 96.1453C165.313 105.698 154.972 110.55 140.414 110.55V112.55C155.455 112.55 166.514 107.502 173.346 97.2547L171.682 96.1453ZM140.414 110.55C125.856 110.55 115.461 105.698 108.992 96.1395L107.336 97.2605C114.267 107.502 125.371 112.55 140.414 112.55V110.55ZM108.996 96.1453C102.545 86.4692 99.2637 73.0391 99.2637 55.75H97.2637C97.2637 73.2609 100.582 87.1308 107.332 97.2547L108.996 96.1453ZM158.364 55.75C158.364 45.6014 157.262 37.6996 154.99 32.1227L153.138 32.8773C155.266 38.1004 156.364 45.6986 156.364 55.75H158.364ZM154.992 32.1286C153.821 29.201 152.001 26.957 149.518 25.4567C147.047 23.9632 143.993 23.25 140.414 23.25V25.25C143.735 25.25 146.405 25.9118 148.484 27.1683C150.552 28.418 152.106 30.299 153.135 32.8714L154.992 32.1286ZM140.414 23.25C136.835 23.25 133.78 23.9632 131.309 25.4567C128.827 26.957 127.006 29.201 125.835 32.1286L127.692 32.8714C128.721 30.299 130.276 28.418 132.343 27.1683C134.422 25.9118 137.093 25.25 140.414 25.25V23.25ZM125.838 32.1227C123.566 37.6996 122.464 45.6014 122.464 55.75H124.464C124.464 45.6986 125.562 38.1004 127.69 32.8773L125.838 32.1227ZM122.464 55.75C122.464 62.5833 122.865 68.2967 123.679 72.875L125.648 72.525C124.862 68.1033 124.464 62.5167 124.464 55.75H122.464ZM123.68 72.8789C124.505 77.4163 126.167 81.1902 128.704 84.1508L130.223 82.8492C127.961 80.2098 126.423 76.7837 125.648 72.5211L123.68 72.8789ZM128.73 84.1794C131.472 87.1413 135.424 88.55 140.414 88.55V86.55C135.803 86.55 132.455 85.2587 130.197 82.8206L128.73 84.1794ZM140.414 88.55C145.4 88.55 149.314 87.1421 151.961 84.1644L150.466 82.8356C148.313 85.2579 145.027 86.55 140.414 86.55V88.55ZM151.96 84.166C154.604 81.2043 156.321 77.4251 157.148 72.8789L155.18 72.5211C154.406 76.7749 152.823 80.1956 150.468 82.834L151.96 84.166ZM157.148 72.875C157.962 68.2967 158.364 62.5833 158.364 55.75H156.364C156.364 62.5167 155.965 68.1033 155.179 72.525L157.148 72.875ZM193.715 92.5H192.715V93.5H193.715V92.5ZM193.715 71.8L192.896 71.227L192.715 71.4851V71.8H193.715ZM241.115 4V3H240.594L240.296 3.42702L241.115 4ZM269.765 4H270.765V3H269.765V4ZM269.765 70.3H268.765V71.3H269.765V70.3ZM282.065 70.3H283.065V69.3H282.065V70.3ZM282.065 92.5V93.5H283.065V92.5H282.065ZM269.765 92.5V91.5H268.765V92.5H269.765ZM269.765 112V113H270.765V112H269.765ZM244.115 112H243.115V113H244.115V112ZM244.115 92.5H245.115V91.5H244.115V92.5ZM245.915 32.2H246.915V28.8754L245.081 31.6483L245.915 32.2ZM220.715 70.3L219.881 69.7483L218.855 71.3H220.715V70.3ZM245.915 70.3V71.3H246.915V70.3H245.915ZM194.715 92.5V71.8H192.715V92.5H194.715ZM194.535 72.373L241.935 4.57297L240.296 3.42702L192.896 71.227L194.535 72.373ZM241.115 5H269.765V3H241.115V5ZM268.765 4V70.3H270.765V4H268.765ZM269.765 71.3H282.065V69.3H269.765V71.3ZM281.065 70.3V92.5H283.065V70.3H281.065ZM282.065 91.5H269.765V93.5H282.065V91.5ZM268.765 92.5V112H270.765V92.5H268.765ZM269.765 111H244.115V113H269.765V111ZM245.115 112V92.5H243.115V112H245.115ZM244.115 91.5H193.715V93.5H244.115V91.5ZM245.081 31.6483L219.881 69.7483L221.549 70.8517L246.749 32.7517L245.081 31.6483ZM220.715 71.3H245.915V69.3H220.715V71.3ZM246.915 70.3V32.2H244.915V70.3H246.915Z" fill="#FF6F61" mask="url(#path-1-inside-1_631_33)"/>
</svg>
